#N canvas 4 0 1920 976 12;
#X obj 505 97 oscparse;
#X obj 481 56 netreceive -u -b;
#X msg 508 18 listen 7311;
#X obj 493 144 list trim;
#X obj 660 166 print;
#X obj 618 663 pgmout;
#X obj 884 812 noteout;
#X obj 621 575 r instrument;
#X obj 874 751 makenote;
#X obj 593 501 s pitch;
#X obj 862 632 r pitch;
#X floatatom 766 769 5 0 0 0 - - - 0;
#X obj 1141 290 * 8;
#X obj 1193 289 * 4;
#X obj 1245 289 * 2;
#X obj 1287 290 * 1;
#X obj 975 431 s instrument;
#X obj 961 215 route gridToggle1 gridToggle2 gridToggle3 gridToggle4 gridToggle5 gridToggle6 gridToggle7;
#X obj 1091 287 * 16;
#X obj 1042 286 * 32;
#X obj 974 290 * 64;
#X obj 457 176 route oscControl;
#X obj 448 222 route gridButton1 gridButton2 gridButton3 gridButton4 gridButton5 gridButton6 gridButton7 gridButton8 gridButton9 gridButton10 gridButton11 gridButton12 gridButton13 gridButton14 gridButton15 gridButton16 gridButton17 gridButton18 gridButton19 gridButton20 gridButton21 gridButton22 gridButton23 gridButton24;
#X msg 424 377 49;
#X msg 440 408 50;
#X msg 455 440 51;
#X msg 478 375 52;
#X msg 487 408 53;
#X msg 496 443 54;
#X msg 520 378 55;
#X msg 534 410 56;
#X msg 543 447 57;
#X msg 562 377 58;
#X msg 577 410 59;
#X msg 585 447 60;
#X msg 606 376 61;
#X msg 620 411 62;
#X msg 630 449 63;
#X msg 650 377 64;
#X msg 659 409 65;
#X msg 673 451 66;
#X msg 691 374 67;
#X msg 699 408 68;
#X msg 714 446 69;
#X msg 731 375 70;
#X msg 741 411 71;
#X msg 755 446 72;
#X obj 1468 198 route gridToggle8;
#X msg 1998 616 0 \, 1 200;
#X obj 2001 709 sqrt~;
#X obj 1999 754 *~ 20;
#X obj 2000 856 cos~;
#X obj 2161 1149 dac~;
#X msg 2514 670 400 4 \, 200 10 4;
#X msg 2675 666 1 4 \, 0 100 4;
#X msg 2798 671 0.4 4 \, 0 300 4;
#X obj 2527 719 vline~;
#X obj 2674 721 vline~;
#X obj 2796 729 vline~;
#X obj 2546 764 osc~;
#X obj 2675 770 pow~ 4;
#X obj 2793 780 pow~ 2;
#X obj 2730 827 noise~;
#X obj 2599 850 *~;
#X obj 2791 858 *~;
#X obj 2003 666 vline~;
#X obj 3309 697 vline~;
#X obj 3229 695 noise~;
#X obj 3267 750 *~;
#X msg 3268 632 2 5 \, 0 100 10;
#X obj 2679 919 *~ 4;
#X obj 1504 317 + 1;
#X obj 1460 280 trigger bang;
#X obj 1459 317 f;
#X obj 1486 347 % 4;
#X obj 970 337 expr 0* $f1 + $f2 + $f3 + $f4 + $f5 + $f6 + $f7 + $f8 + 1;
#X obj 1836 275 * 1;
#X obj 1476 386 + 1;
#X obj 1839 176 route gridToggle9 gridToggle10 gridToggle11 gridToggle12;
#X obj 1673 446 expr if ($f1 == $f2 \, 1 \, 0);
#X obj 1786 481 expr if ($f1 == $f2 \, 1 \, 0);
#X obj 1936 278 * 2;
#X obj 2043 279 * 3;
#X obj 2133 282 * 4;
#X obj 1995 479 expr if ($f1 == $f2 \, 1 \, 0);
#X obj 2117 442 expr if ($f1 == $f2 \, 1 \, 0);
#X obj 2409 173 route gridToggle13 gridToggle14 gridToggle15 gridToggle16;
#X obj 1466 424 s beat;
#X obj 1976 364 r beat;
#X obj 2440 270 * 1;
#X obj 2540 273 * 2;
#X obj 2647 274 * 3;
#X obj 2737 277 * 4;
#X obj 2362 438 expr if ($f1 == $f2 \, 1 \, 0);
#X obj 2448 479 expr if ($f1 == $f2 \, 1 \, 0);
#X obj 2657 481 expr if ($f1 == $f2 \, 1 \, 0);
#X obj 2784 443 expr if ($f1 == $f2 \, 1 \, 0);
#X obj 2651 359 r beat;
#X obj 2005 548 sel 1;
#X obj 2637 519 sel 1;
#X obj 3130 179 route gridToggle17 gridToggle18 gridToggle19 gridToggle20;
#X obj 3159 274 * 1;
#X obj 3259 277 * 2;
#X obj 3366 278 * 3;
#X obj 3456 281 * 4;
#X obj 3018 439 expr if ($f1 == $f2 \, 1 \, 0);
#X obj 3104 480 expr if ($f1 == $f2 \, 1 \, 0);
#X obj 3313 482 expr if ($f1 == $f2 \, 1 \, 0);
#X obj 3440 444 expr if ($f1 == $f2 \, 1 \, 0);
#X obj 3307 360 r beat;
#X obj 3293 520 sel 1;
#X obj 3688 179 route gridToggle21 gridToggle22 gridToggle23 gridToggle24;
#X obj 3952 250 * 1;
#X obj 3883 251 * 2;
#X obj 3726 250 * 8;
#X obj 3807 250 * 4;
#X obj 3882 436 s bpm;
#X obj 1536 229 r bpm;
#X obj 1462 251 metro;
#X obj 3722 322 expr ((0 * $f1 + $f2 + $f3 + $f4 + $f5) * 10 + 60);
#X obj 3738 372 pow -1;
#X obj 3801 402 * 60000;
#X obj -91 217 route toggle1 toggle2 toggle3;
#X obj -831 246 s rightVol;
#X obj -924 244 s leftVol;
#X obj -724 246 s masterVol;
#X obj 970 606 r masterVol;
#X obj -900 198 route slider1 slider2 slider3 slider4;
#X obj -608 251 s noteDuration;
#X obj 1116 606 r noteDuration;
#X obj 1122 666 * 2000;
#X obj 2540 52 route button1 button2 button3;
#X obj 2125 880 r masterVol;
#X obj 2066 926 *~;
#X obj 2246 994 r rightVol;
#X obj 2077 1082 *~;
#X obj 2211 1029 *~;
#X obj 2163 940 r leftVol;
#X obj 2863 993 r masterVol;
#X obj 2804 1039 *~;
#X obj 2984 1107 r rightVol;
#X obj 2815 1195 *~;
#X obj 2949 1142 *~;
#X obj 2901 1053 r leftVol;
#X obj 2867 1254 dac~;
#X obj 3360 897 r masterVol;
#X obj 3301 943 *~;
#X obj 3481 1011 r rightVol;
#X obj 3312 1099 *~;
#X obj 3446 1046 *~;
#X obj 3398 957 r leftVol;
#X obj 3364 1158 dac~;
#X obj 3268 810 *~ 0.1;
#X obj 979 663 * 127;
#X obj -324 219 route slider2Dx slider2Dy;
#X obj -218 504 dac~;
#X obj -306 383 osc~;
#X obj -332 315 * 20000;
#X obj -221 433 *~;
#X obj -805 795 r instrument;
#X floatatom -801 879 5 0 0 0 - - - 0;
#X obj -653 795 r pitch;
#X floatatom -654 882 5 0 0 0 - - - 0;
#X obj -521 797 r leftVol;
#X obj -413 803 r rightVol;
#X obj -299 801 r masterVol;
#X floatatom -515 885 5 0 0 0 - - - 0;
#X floatatom -398 881 5 0 0 0 - - - 0;
#X floatatom -280 881 5 0 0 0 - - - 0;
#X obj -805 955 r noteDuration;
#X floatatom -810 1018 5 0 0 0 - - - 0;
#X obj -655 957 r bpm;
#X obj -652 1026 / 60000;
#X obj -637 1077 pow -1;
#X floatatom -631 1144 5 0 0 0 - - - 0;
#X obj 2001 810 -~ 0.1;
#X obj 2032 890 *~ 0.5;
#X connect 0 0 3 0;
#X connect 0 0 4 0;
#X connect 1 0 0 0;
#X connect 2 0 1 0;
#X connect 3 0 21 0;
#X connect 7 0 5 0;
#X connect 8 0 6 0;
#X connect 8 1 6 1;
#X connect 10 0 8 0;
#X connect 10 0 11 0;
#X connect 12 0 75 4;
#X connect 12 0 75 0;
#X connect 13 0 75 5;
#X connect 13 0 75 0;
#X connect 14 0 75 6;
#X connect 14 0 75 0;
#X connect 15 0 75 7;
#X connect 15 0 75 0;
#X connect 17 0 20 0;
#X connect 17 1 19 0;
#X connect 17 2 18 0;
#X connect 17 3 12 0;
#X connect 17 4 13 0;
#X connect 17 5 14 0;
#X connect 17 6 15 0;
#X connect 18 0 75 3;
#X connect 18 0 75 0;
#X connect 19 0 75 2;
#X connect 19 0 75 0;
#X connect 20 0 75 1;
#X connect 20 0 75 0;
#X connect 21 0 17 0;
#X connect 21 0 22 0;
#X connect 21 0 47 0;
#X connect 21 0 78 0;
#X connect 21 0 86 0;
#X connect 21 0 100 0;
#X connect 21 0 111 0;
#X connect 21 0 122 0;
#X connect 21 0 127 0;
#X connect 21 0 131 0;
#X connect 21 0 154 0;
#X connect 22 0 23 0;
#X connect 22 1 24 0;
#X connect 22 2 25 0;
#X connect 22 3 26 0;
#X connect 22 4 27 0;
#X connect 22 5 28 0;
#X connect 22 6 29 0;
#X connect 22 7 30 0;
#X connect 22 8 31 0;
#X connect 22 9 32 0;
#X connect 22 10 33 0;
#X connect 22 11 34 0;
#X connect 22 12 35 0;
#X connect 22 13 36 0;
#X connect 22 14 37 0;
#X connect 22 15 38 0;
#X connect 22 16 39 0;
#X connect 22 17 40 0;
#X connect 22 18 41 0;
#X connect 22 19 42 0;
#X connect 22 20 43 0;
#X connect 22 21 44 0;
#X connect 22 22 45 0;
#X connect 22 23 46 0;
#X connect 23 0 9 0;
#X connect 24 0 9 0;
#X connect 25 0 9 0;
#X connect 26 0 9 0;
#X connect 27 0 9 0;
#X connect 28 0 9 0;
#X connect 29 0 9 0;
#X connect 30 0 9 0;
#X connect 31 0 9 0;
#X connect 32 0 9 0;
#X connect 33 0 9 0;
#X connect 34 0 9 0;
#X connect 35 0 9 0;
#X connect 36 0 9 0;
#X connect 37 0 9 0;
#X connect 38 0 9 0;
#X connect 39 0 9 0;
#X connect 40 0 9 0;
#X connect 41 0 9 0;
#X connect 42 0 9 0;
#X connect 43 0 9 0;
#X connect 44 0 9 0;
#X connect 45 0 9 0;
#X connect 46 0 9 0;
#X connect 47 0 118 0;
#X connect 48 0 65 0;
#X connect 49 0 50 0;
#X connect 50 0 175 0;
#X connect 51 0 176 0;
#X connect 53 0 56 0;
#X connect 54 0 57 0;
#X connect 55 0 58 0;
#X connect 56 0 59 0;
#X connect 57 0 60 0;
#X connect 58 0 61 0;
#X connect 59 0 63 0;
#X connect 60 0 63 1;
#X connect 61 0 64 1;
#X connect 62 0 64 0;
#X connect 63 0 70 0;
#X connect 64 0 70 0;
#X connect 65 0 49 0;
#X connect 66 0 68 1;
#X connect 67 0 68 0;
#X connect 68 0 152 0;
#X connect 69 0 66 0;
#X connect 70 0 139 0;
#X connect 71 0 73 1;
#X connect 72 0 73 0;
#X connect 73 0 71 0;
#X connect 73 0 74 0;
#X connect 74 0 77 0;
#X connect 75 0 16 0;
#X connect 76 0 79 1;
#X connect 77 0 87 0;
#X connect 78 0 76 0;
#X connect 78 1 81 0;
#X connect 78 2 82 0;
#X connect 78 3 83 0;
#X connect 79 0 98 0;
#X connect 80 0 98 0;
#X connect 81 0 80 1;
#X connect 82 0 84 1;
#X connect 83 0 85 1;
#X connect 84 0 98 0;
#X connect 85 0 98 0;
#X connect 86 0 89 0;
#X connect 86 1 90 0;
#X connect 86 2 91 0;
#X connect 86 3 92 0;
#X connect 88 0 79 0;
#X connect 88 0 80 0;
#X connect 88 0 84 0;
#X connect 88 0 85 0;
#X connect 89 0 93 1;
#X connect 90 0 94 1;
#X connect 91 0 95 1;
#X connect 92 0 96 1;
#X connect 93 0 99 0;
#X connect 94 0 99 0;
#X connect 95 0 99 0;
#X connect 96 0 99 0;
#X connect 97 0 93 0;
#X connect 97 0 94 0;
#X connect 97 0 95 0;
#X connect 97 0 96 0;
#X connect 98 0 48 0;
#X connect 99 0 53 0;
#X connect 99 0 54 0;
#X connect 99 0 55 0;
#X connect 100 0 101 0;
#X connect 100 1 102 0;
#X connect 100 2 103 0;
#X connect 100 3 104 0;
#X connect 101 0 105 1;
#X connect 102 0 106 1;
#X connect 103 0 107 1;
#X connect 104 0 108 1;
#X connect 105 0 110 0;
#X connect 106 0 110 0;
#X connect 107 0 110 0;
#X connect 108 0 110 0;
#X connect 109 0 105 0;
#X connect 109 0 106 0;
#X connect 109 0 107 0;
#X connect 109 0 108 0;
#X connect 110 0 69 0;
#X connect 111 0 114 0;
#X connect 111 1 115 0;
#X connect 111 2 113 0;
#X connect 111 3 112 0;
#X connect 112 0 119 4;
#X connect 112 0 119 0;
#X connect 113 0 119 3;
#X connect 113 0 119 0;
#X connect 114 0 119 1;
#X connect 114 0 119 0;
#X connect 115 0 119 2;
#X connect 115 0 119 0;
#X connect 117 0 118 1;
#X connect 118 0 72 0;
#X connect 119 0 120 0;
#X connect 120 0 121 0;
#X connect 121 0 116 0;
#X connect 126 0 153 0;
#X connect 127 0 124 0;
#X connect 127 1 123 0;
#X connect 127 2 125 0;
#X connect 127 3 128 0;
#X connect 129 0 130 0;
#X connect 130 0 8 2;
#X connect 131 0 98 0;
#X connect 131 1 99 0;
#X connect 131 2 110 0;
#X connect 132 0 133 1;
#X connect 133 0 135 0;
#X connect 133 0 136 0;
#X connect 134 0 136 1;
#X connect 135 0 52 0;
#X connect 136 0 52 1;
#X connect 137 0 135 1;
#X connect 138 0 139 1;
#X connect 139 0 141 0;
#X connect 139 0 142 0;
#X connect 140 0 142 1;
#X connect 141 0 144 0;
#X connect 142 0 144 1;
#X connect 143 0 141 1;
#X connect 145 0 146 1;
#X connect 146 0 148 0;
#X connect 146 0 149 0;
#X connect 147 0 149 1;
#X connect 148 0 151 0;
#X connect 149 0 151 1;
#X connect 150 0 148 1;
#X connect 152 0 146 0;
#X connect 153 0 8 1;
#X connect 154 0 157 0;
#X connect 154 1 158 1;
#X connect 156 0 158 0;
#X connect 157 0 156 0;
#X connect 158 0 155 0;
#X connect 158 0 155 1;
#X connect 159 0 160 0;
#X connect 161 0 162 0;
#X connect 163 0 166 0;
#X connect 164 0 167 0;
#X connect 165 0 168 0;
#X connect 169 0 170 0;
#X connect 171 0 172 0;
#X connect 172 0 173 0;
#X connect 173 0 174 0;
#X connect 175 0 51 0;
#X connect 176 0 133 0;
